<svg width="14" height="12" viewBox="0 0 14 12" fill="none" xmlns="http://www.w3.org/2000/svg">
<path d="M12.8333 5.16657H2.94998L5.97498 1.53324C6.11643 1.36306 6.18448 1.14366 6.16416 0.923301C6.14385 0.702946 6.03683 0.499686 5.86665 0.358238C5.69647 0.216789 5.47707 0.148737 5.25671 0.169054C5.03635 0.18937 4.83309 0.29639 4.69165 0.466571L0.52498 5.46657C0.496947 5.50634 0.471879 5.54812 0.44998 5.59157C0.44998 5.63324 0.44998 5.65824 0.391646 5.6999C0.353874 5.79545 0.334097 5.89716 0.333313 5.9999C0.334097 6.10264 0.353874 6.20435 0.391646 6.2999C0.391646 6.34157 0.391646 6.36657 0.44998 6.40824C0.471879 6.45169 0.496947 6.49347 0.52498 6.53324L4.69165 11.5332C4.77 11.6273 4.86811 11.703 4.97902 11.7548C5.08992 11.8067 5.21089 11.8334 5.33331 11.8332C5.52802 11.8336 5.71672 11.7658 5.86665 11.6416C5.95103 11.5716 6.02078 11.4857 6.07191 11.3887C6.12303 11.2918 6.15453 11.1857 6.16459 11.0765C6.17466 10.9674 6.16309 10.8573 6.13055 10.7527C6.09801 10.648 6.04515 10.5508 5.97498 10.4666L2.94998 6.83324H12.8333C13.0543 6.83324 13.2663 6.74544 13.4226 6.58916C13.5788 6.43288 13.6666 6.22092 13.6666 5.9999C13.6666 5.77889 13.5788 5.56693 13.4226 5.41065C13.2663 5.25437 13.0543 5.16657 12.8333 5.16657Z" fill="#34485C"/>
</svg>
